<?xml version="1.0" encoding="UTF-8"?>
<svg width="1787px" height="1787px" viewBox="0 0 1787 1787" version="1.1" xmlns="http://www.w3.org/2000/svg" xmlns:xlink="http://www.w3.org/1999/xlink">
    <!-- Generator: Sketch 51.2 (57519) - http://www.bohemiancoding.com/sketch -->
    <title>piggy bank</title>
    <desc>Created with Sketch.</desc>
    <defs></defs>
    <g id="piggy-bank" stroke="none" stroke-width="1" fill="none" fill-rule="evenodd">
        <g transform="translate(0.000000, 16.000000)" fill="#000000" fill-rule="nonzero" id="Shape">
            <path d="M1779.93225,900.273479 C1772.57559,892.157075 1750.53236,881.290617 1725.49831,873.452428 C1724.56736,866.197422 1722.81781,859.215281 1720.16941,852.75212 C1711.60893,832.051811 1694.82504,819.15759 1672.95837,816.47709 C1635.1692,811.902584 1594.04145,829.713731 1564.5399,846.49762 C1505.01782,638.809698 1331.02608,466.332096 1098.55022,393.707132 C1115.53743,357.983183 1125.30172,318.230458 1125.30172,276.075449 C1125.30172,124.266054 1001.75261,0.71694012 849.90576,0.71694012 C698.096365,0.71694012 574.579353,124.266054 574.579353,276.075449 C574.579353,319.744593 585.06594,360.872344 603.187404,397.591449 C524.270488,423.722311 449.79432,461.447272 385.355314,509.755126 C312.147168,471.553988 232.202994,472.137171 178.079365,512.542632 L150.503922,533.103832 L241.42156,654.898048 C196.275734,717.271838 163.949225,785.290195 145.073368,857.669045 L106.663569,857.669045 C47.8637784,857.674395 0,905.538174 0,964.370066 L0,1271.63776 C0,1330.46965 47.8637784,1378.33343 106.663569,1378.33343 L258.820734,1378.33343 C303.420829,1434.55438 357.539108,1483.83063 420.159012,1525.1938 L420.159012,1668.92424 C420.159012,1712.45428 451.795332,1747.87326 490.681308,1747.87326 L621.726192,1747.87326 C660.617518,1747.87326 692.248488,1712.45428 692.248488,1668.92424 L692.248488,1637.19162 C792.72176,1657.85982 895.121141,1659.74848 1000.06726,1640.70141 L1000.06726,1672.68015 C1000.06726,1716.21019 1031.70358,1751.59707 1070.58956,1751.59707 L1201.63444,1751.59707 C1240.52577,1751.59707 1272.15674,1716.21554 1272.15674,1672.68015 L1272.15674,1538.30203 C1469.70049,1416.81813 1586.95766,1218.89451 1586.95766,1005.08584 C1586.95766,962.930835 1581.79997,921.599772 1572.85962,881.263865 C1599.71277,864.758192 1637.91926,846.67418 1668.72628,850.628051 C1677.9395,851.762314 1684.02814,856.267266 1687.91246,864.72609 C1666.76272,861.69782 1647.57655,862.901638 1637.22907,871.537021 C1622.54785,883.778506 1616.11679,904.238051 1621.24237,922.429069 C1626.74248,942.027216 1643.90089,955.33341 1668.35176,958.982314 C1670.30997,959.25518 1672.27353,959.43174 1674.23174,959.43174 C1687.22762,959.43174 1699.33534,952.968578 1708.78932,940.828749 C1715.77146,931.888398 1720.75794,920.679521 1723.57755,908.678799 C1738.18922,913.563623 1750.50026,919.063731 1754.52368,923.360021 C1760.95474,930.411716 1771.78375,930.925344 1778.79799,924.531737 C1785.81223,918.122078 1786.32586,907.325174 1779.93225,900.273479 Z M849.90576,69.5217904 C963.861787,69.5217904 1056.52897,162.188976 1056.52897,276.107551 C1056.52897,318.610329 1043.60265,358.149042 1021.52196,390.98918 L1020.35025,392.637072 C1019.4193,394.012099 1018.35459,395.248018 1017.39153,396.590943 C1013.43766,402.058949 1009.24303,407.318293 1004.83973,412.304772 C1003.66801,413.679799 1002.4321,414.985272 1001.22828,416.328198 C996.862434,421.004359 992.32003,425.47721 987.611766,429.703946 C986.547057,430.634898 985.514449,431.630054 984.44974,432.555656 C972.379464,442.903135 959.314033,451.880937 945.31765,459.135943 C944.836123,459.408808 944.354596,459.61747 943.873069,459.858234 C937.511563,463.127266 931.010949,466.011078 924.376578,468.589922 C922.931997,469.173105 921.455314,469.654632 919.973281,470.205713 C914.194958,472.335132 908.314979,474.127482 902.333344,475.70582 C900.47679,476.187347 898.652338,476.700976 896.763683,477.150401 C890.915805,478.493326 884.971623,479.520584 879.02209,480.419434 C877.095982,480.692299 875.27153,481.072171 873.350772,481.280832 C865.582138,482.142231 857.776051,482.693311 849.862958,482.693311 C842.024769,482.693311 834.250784,482.179683 826.514251,481.280832 C824.898461,481.109623 823.314772,480.767204 821.66688,480.558542 C815.40703,479.697144 809.216734,478.600332 803.063889,477.155751 C801.65141,476.845434 800.276383,476.433461 798.901356,476.091042 C792.438195,474.405698 786.007135,472.517042 779.715183,470.211063 C778.853784,469.868644 777.928183,469.558326 777.066784,469.248009 C747.666889,458.039132 720.845838,440.190533 699.011266,416.879278 C698.428084,416.258644 697.909105,415.643359 697.325922,414.990623 C692.408997,409.661725 687.802389,404.022509 683.468647,398.105078 C682.403937,396.628395 681.232222,395.183814 680.167512,393.701781 L678.310958,391.155039 C656.166069,358.250698 643.239746,318.706635 643.239746,276.134302 C643.352102,162.188976 735.987186,69.5217904 849.90576,69.5217904 Z M1219.96457,1489.29864 L1201.63444,1499.92434 L1203.35189,1672.6427 C1203.35189,1678.04115 1201.35623,1681.55095 1200.18986,1682.78687 L1072.44611,1683.23629 C1071.48306,1682.58356 1068.83466,1678.90255 1068.83466,1672.64805 L1068.83466,1555.15013 L1026.6422,1564.98398 C903.33385,1593.66158 782.920012,1591.08274 666.593802,1560.58068 L623.47574,1549.30225 L623.47574,1668.89749 C623.47574,1675.18944 620.79524,1678.87045 621.720841,1679.07376 L492.602066,1679.52319 C491.639012,1678.87045 488.958512,1675.18944 488.958512,1668.89749 L488.888958,1519.8007 L495.111356,1491.09099 L474.512704,1478.33588 C406.328488,1436.00966 348.695063,1383.81214 303.238919,1323.25745 L292.923542,1309.53928 L106.663569,1309.53928 C85.7920509,1309.53928 68.7727485,1292.55208 68.7727485,1271.61101 L68.7727485,964.343314 C68.7727485,943.434344 85.7599491,926.415042 106.663569,926.415042 L200.122599,926.415042 L205.900922,899.149916 C222.920225,818.515554 258.40876,743.557859 311.398126,676.261793 L327.695138,655.529383 L251.052099,552.787584 C284.989048,544.537422 329.417934,554.612036 369.887599,580.122263 L390.657461,593.225147 L409.774081,577.853737 C476.652823,524.109979 556.634449,482.436497 642.287392,456.508946 C643.041784,457.402446 644.004838,458.19429 644.764581,459.08779 C649.991823,464.935668 655.459829,470.606985 661.200701,476.005437 C662.645281,477.380464 664.159416,478.685937 665.636099,480.028862 C671.344868,485.186551 677.224847,490.103476 683.34559,494.779638 C684.822272,495.881799 686.266853,496.978611 687.748886,498.080772 C690.359832,500.00688 692.874473,502.104198 695.587075,503.92865 C650.47335,515.346189 606.87376,531.332883 566.024225,552.070644 C549.074476,560.668575 542.365201,581.368883 550.963132,598.28653 C559.561063,615.273731 580.261371,622.015108 597.179018,613.379725 C675.544853,573.562796 765.221222,552.520069 856.374272,552.520069 C952.412147,552.520069 1046.21895,575.729668 1127.50604,619.639575 C1132.69584,622.459183 1138.30295,623.764656 1143.84051,623.764656 C1156.04989,623.764656 1167.91151,617.264042 1174.1339,605.744847 C1183.17591,589.035862 1176.92141,568.158994 1160.24453,559.15444 C1112.58406,533.435551 1061.17838,514.179823 1007.67539,501.526365 C1009.36073,500.322548 1010.97652,499.017075 1012.66187,497.813257 C1014.99995,496.058359 1017.37013,494.340913 1019.64401,492.586015 C1024.97291,488.39138 1030.09849,483.988084 1035.08497,479.418928 C1037.21439,477.49282 1039.34916,475.668368 1041.41438,473.710159 C1046.88238,468.38126 1052.10963,462.811599 1057.12821,457.033275 C1058.16081,455.86156 1059.32718,454.834302 1060.35979,453.593033 C1331.07424,530.514287 1518.27051,754.499222 1518.27051,1005.03234 C1518.15281,1200.29152 1406.71142,1381.3296 1219.96457,1489.29864 Z M1681.65796,919.705766 C1679.56064,922.316713 1676.84269,924.895557 1673.33824,924.965111 C1667.2175,924.034159 1656.62925,921.321557 1654.32328,913.103497 C1652.84659,907.913707 1654.94391,901.482647 1658.51791,898.384823 C1660.54567,897.421769 1663.60604,896.972344 1667.55992,896.972344 C1673.6111,896.972344 1681.5563,898.004952 1690.18633,899.75985 C1688.43143,907.774599 1685.37106,914.890497 1681.65796,919.705766 Z M474.175635,890.578737 C474.175635,922.177605 448.558401,947.794838 416.959533,947.794838 C385.360665,947.794838 359.743431,922.177605 359.743431,890.578737 C359.743431,858.979868 385.360665,833.362635 416.959533,833.362635 C448.558401,833.362635 474.175635,858.979868 474.175635,890.578737 Z"></path>
        </g>
        <circle id="Oval" stroke="#FF0014" stroke-width="36" fill-rule="nonzero" cx="852" cy="292" r="221"></circle>
        <text id="D" font-family="Membra" font-size="288" font-weight="normal" fill="#FF0014">
            <tspan x="702" y="384">D</tspan>
        </text>
    </g>
</svg>