<?xml version="1.0" encoding="UTF-8"?>
<svg width="324px" height="36px" viewBox="0 0 324 36" version="1.1" xmlns="http://www.w3.org/2000/svg" xmlns:xlink="http://www.w3.org/1999/xlink">
    <!-- Generator: Sketch 51.2 (57519) - http://www.bohemiancoding.com/sketch -->
    <title>TronDash</title>
    <desc>Created with Sketch.</desc>
    <defs></defs>
    <g id="Page-1" stroke="none" stroke-width="1" fill="none" fill-rule="evenodd">
        <path d="M25.1510968,11.70273 C25.1510968,11.2111199 25.3173237,10.7990411 25.6497824,10.4664813 C25.9822411,10.1339215 26.3941946,9.96764408 26.8856553,9.96764408 C27.5216632,9.96764408 28.0131165,10.2568222 28.3600299,10.8351871 L38.1602849,10.8351871 L38.1602849,5.62992922 L1.7345584,5.62992922 L1.7345584,10.8351871 L17.345584,10.8351871 L17.345584,33.3913043 L22.5492592,33.3913043 L22.5492592,7.36501517 L34.0407087,7.36501517 C34.3876221,6.78665029 34.8935299,6.49747219 35.5584473,6.49747219 C36.0499079,6.49747219 36.4618614,6.6637496 36.7943201,6.9963094 C37.1267788,7.32886921 37.2930057,7.740948 37.2930057,8.23255814 C37.2930057,8.72416828 37.1267788,9.13624707 36.7943201,9.46880688 C36.4618614,9.80136668 36.0499079,9.96764408 35.5584473,9.96764408 C34.8935299,9.96764408 34.3876221,9.67846599 34.0407087,9.10010111 L24.2838176,9.10010111 L24.2838176,35.1263903 L15.6110256,35.1263903 L15.6110256,12.570273 L0,12.570273 L0,3.89484328 L39.8948433,3.89484328 L39.8948433,12.570273 L28.3600299,12.570273 C28.0131165,13.1486379 27.5216632,13.437816 26.8856553,13.437816 C26.3941946,13.437816 25.9822411,13.2715386 25.6497824,12.9389788 C25.3173237,12.606419 25.1510968,12.1943402 25.1510968,11.70273 Z M2.58442872,8.25075834 C2.58442872,7.7591482 2.75060042,7.34706941 3.0829488,7.01450961 C3.41529719,6.6819498 3.82711401,6.5156724 4.31841162,6.5156724 C4.95420853,6.5156724 5.44549877,6.8048505 5.79229709,7.38321537 L20.7912492,7.38321537 L20.7912492,29.3320526 C21.3692464,29.6790715 21.6582406,30.1706743 21.6582406,30.8068756 C21.6582406,31.2984858 21.4920689,31.7105646 21.1597206,32.0431244 C20.8273722,32.3756842 20.4155554,32.5419616 19.9242577,32.5419616 C19.4329601,32.5419616 19.0211433,32.3756842 18.6887949,32.0431244 C18.3564465,31.7105646 18.1902748,31.2984858 18.1902748,30.8068756 C18.1902748,30.1706743 18.4792691,29.6790715 19.0572663,29.3320526 L19.0572663,9.11830131 L5.79229709,9.11830131 C5.44549877,9.69666619 4.95420853,9.98584429 4.31841162,9.98584429 C3.82711401,9.98584429 3.41529719,9.81956688 3.0829488,9.48700708 C2.75060042,9.15444728 2.58442872,8.74236848 2.58442872,8.25075834 Z M43.3892821,16.0525784 C43.3892821,14.3185868 43.5122489,12.8952901 43.7581862,11.7826455 C44.0041235,10.6700009 44.4525907,9.78856838 45.1036012,9.13832154 C45.7546116,8.4880747 46.6443126,8.03290874 47.7727308,7.77281 C48.901149,7.51271127 50.3333506,7.38266385 52.0693785,7.38266385 L68.3445594,7.38266385 C68.691765,6.80466666 69.1980989,6.5156724 69.8635763,6.5156724 C70.3554509,6.5156724 70.7677513,6.6818441 71.10049,7.01419248 C71.4332287,7.34654087 71.5995956,7.75835769 71.5995956,8.2496553 C71.5995956,8.74095291 71.4332287,9.15276973 71.10049,9.48511812 C70.7677513,9.8174665 70.3554509,9.9836382 69.8635763,9.9836382 C69.1980989,9.9836382 68.691765,9.69464394 68.3445594,9.11664675 L52.0693785,9.11664675 C50.6516224,9.11664675 49.4942878,9.21056989 48.59734,9.39841897 C47.7003922,9.58626806 46.9915247,9.94028603 46.4707163,10.4604835 C45.949908,10.980681 45.5954742,11.6887169 45.4074045,12.5846126 C45.2193348,13.4805082 45.1253014,14.6364852 45.1253014,16.0525784 L45.1253014,33.3924074 L50.3333593,33.3924074 L50.3333593,16.0525784 C50.3333593,14.896584 50.9120266,14.3185955 52.0693785,14.3185955 L69.4295714,14.3185955 L69.4295714,12.5846126 L52.0693785,12.5846126 C51.3170998,12.5846126 50.7094991,12.6207368 50.2465583,12.6929865 C49.7836175,12.7652361 49.4291838,12.924183 49.1832465,13.1698318 C48.9373092,13.4154806 48.7781757,13.7694986 48.7058412,14.2318963 C48.6335067,14.6942941 48.59734,15.301182 48.59734,16.0525784 L48.59734,29.3175476 C49.176016,29.6643459 49.4653496,30.1556361 49.4653496,30.791433 C49.4653496,31.2827306 49.2989828,31.6945475 48.9662441,32.0268959 C48.6335054,32.3592442 48.2212049,32.5254159 47.7293303,32.5254159 C47.2374557,32.5254159 46.8251553,32.3592442 46.4924166,32.0268959 C46.1596779,31.6945475 45.993311,31.2827306 45.993311,30.791433 C45.993311,30.1556361 46.2826447,29.6643459 46.8613207,29.3175476 L46.8613207,16.0525784 C46.8613207,14.9832836 46.9264208,14.1090759 47.0566229,13.4299292 C47.1868249,12.7507825 47.4472252,12.2161431 47.8378315,11.825995 C48.2284378,11.4358469 48.7564717,11.1757521 49.4219491,11.0457027 C50.0874265,10.9156534 50.9698942,10.8506297 52.0693785,10.8506297 L71.1655907,10.8506297 L71.1655907,16.0525784 L53.8053978,16.0525784 C53.4003246,16.0525784 53.0820576,16.0670281 52.8505872,16.0959279 C52.6191168,16.1248278 52.4455166,16.1970764 52.3297814,16.3126758 C52.2140462,16.4282752 52.1417128,16.6016718 52.112779,16.8328707 C52.0838452,17.0640695 52.0693785,17.3819632 52.0693785,17.7865613 L52.0693785,35.1263903 L43.3892821,35.1263903 L43.3892821,16.0525784 Z M111.458038,26.4835693 C111.458038,28.2194222 111.327908,29.6514794 111.067644,30.7797839 C110.80738,31.9080883 110.351924,32.7976996 109.701264,33.4486445 C109.050603,34.0995893 108.16861,34.5480113 107.055258,34.7939238 C105.941905,35.0398363 104.517703,35.1627907 102.782609,35.1627907 L83.6966633,35.1627907 C81.9615687,35.1627907 80.5301371,35.0398363 79.4023256,34.7939238 C78.2745141,34.5480113 77.3852914,34.0995893 76.7346309,33.4486445 C76.0839705,32.7976996 75.6357444,31.9080883 75.3899393,30.7797839 C75.1441343,29.6514794 75.0212336,28.2194222 75.0212336,26.4835693 L75.0212336,16.0685035 C75.0212336,14.3326506 75.1441343,12.907826 75.3899393,11.793987 C75.6357444,10.680148 76.0839705,9.79776931 76.7346309,9.14682444 C77.3852914,8.49587958 78.2745141,8.04022501 79.4023256,7.77984707 C80.5301371,7.51946912 81.9615687,7.3892821 83.6966633,7.3892821 L102.782609,7.3892821 C104.517703,7.3892821 105.941905,7.51946912 107.055258,7.77984707 C108.16861,8.04022501 109.050603,8.49587958 109.701264,9.14682444 C110.351924,9.79776931 110.80738,10.680148 111.067644,11.793987 C111.327908,12.907826 111.458038,14.3326506 111.458038,16.0685035 L111.458038,26.4835693 Z M109.747219,16.0369782 C109.747219,14.620692 109.653202,13.4645574 109.465164,12.5685397 C109.277126,11.6725219 108.922753,10.9643894 108.402033,10.444121 C107.881313,9.92385266 107.172566,9.56978644 106.27577,9.38191174 C105.378975,9.19403705 104.221837,9.10010111 102.804321,9.10010111 L83.7113512,9.10010111 C82.2938357,9.10010111 81.1366976,9.19403705 80.2399021,9.38191174 C79.3431066,9.56978644 78.6343595,9.92385266 78.1136395,10.444121 C77.5929195,10.9643894 77.238546,11.6725219 77.0505082,12.5685397 C76.8624705,13.4645574 76.768453,14.620692 76.768453,16.0369782 L76.768453,26.4422938 C76.768453,27.85858 76.8624705,29.0147146 77.0505082,29.9107323 C77.238546,30.8067501 77.5929195,31.5148826 78.1136395,32.0351509 C78.6343595,32.5554193 79.3431066,32.9094856 80.2399021,33.0973602 C81.1366976,33.2852349 82.2938357,33.3791709 83.7113512,33.3791709 L102.804321,33.3791709 C104.221837,33.3791709 105.378975,33.2852349 106.27577,33.0973602 C107.172566,32.9094856 107.881313,32.5554193 108.402033,32.0351509 C108.922753,31.5148826 109.277126,30.8067501 109.465164,29.9107323 C109.653202,29.0147146 109.747219,27.85858 109.747219,26.4422938 L109.747219,16.0369782 Z M108,26.463094 C108,27.5619873 107.934962,28.4439805 107.804883,29.1091001 C107.674805,29.7742197 107.414651,30.3019697 107.024416,30.692366 C106.63418,31.0827623 106.099421,31.3430226 105.420121,31.4731547 C104.740822,31.6032868 103.866418,31.6683519 102.796883,31.6683519 L83.718789,31.6683519 C82.6203478,31.6683519 81.7387174,31.6032868 81.0738714,31.4731547 C80.4090254,31.3430226 79.8814925,31.0827623 79.4912568,30.692366 C79.1010211,30.3019697 78.8408678,29.7742197 78.7107893,29.1091001 C78.5807107,28.4439805 78.5156724,27.5619873 78.5156724,26.463094 L78.5156724,16.0525784 C78.5156724,14.9826033 78.5807107,14.1078396 78.7107893,13.4282609 C78.8408678,12.7486821 79.1010211,12.2137027 79.4912568,11.8233064 C79.8814925,11.4329101 80.4090254,11.1726498 81.0738714,11.0425177 C81.7387174,10.9123856 82.6203478,10.8473205 83.718789,10.8473205 L102.796883,10.8473205 C103.866418,10.8473205 104.740822,10.9123856 105.420121,11.0425177 C106.099421,11.1726498 106.63418,11.4329101 107.024416,11.8233064 C107.414651,12.2137027 107.674805,12.7486821 107.804883,13.4282609 C107.934962,14.1078396 108,14.9826033 108,16.0525784 L108,26.463094 Z M80.2264914,26.4849343 C80.2264914,27.2373344 80.2626387,27.8450331 80.3349343,28.3080485 C80.4072299,28.771064 80.5662778,29.1255549 80.8120829,29.3715319 C81.057888,29.6175088 81.4121312,29.776668 81.8748231,29.8490142 C82.337515,29.9213603 82.944789,29.9575329 83.6966633,29.9575329 L102.782609,29.9575329 C103.534483,29.9575329 104.141757,29.9213603 104.604449,29.8490142 C105.067141,29.776668 105.421384,29.6175088 105.667189,29.3715319 C105.912994,29.1255549 106.072042,28.771064 106.144338,28.3080485 C106.216633,27.8450331 106.252781,27.2373344 106.252781,26.4849343 L106.252781,16.0671385 C106.252781,15.3147384 106.216633,14.7070397 106.144338,14.2440243 C106.072042,13.7810088 105.912994,13.4265179 105.667189,13.180541 C105.421384,12.934564 105.067141,12.7754048 104.604449,12.7030586 C104.141757,12.6307125 103.534483,12.5945399 102.782609,12.5945399 L83.6966633,12.5945399 C82.944789,12.5945399 82.337515,12.6307125 81.8748231,12.7030586 C81.4121312,12.7754048 81.057888,12.934564 80.8120829,13.180541 C80.5662778,13.4265179 80.4072299,13.7810088 80.3349343,14.2440243 C80.2626387,14.7070397 80.2264914,15.3147384 80.2264914,16.0671385 L80.2264914,26.4849343 Z M104.541962,26.4403438 C104.541962,27.5960624 103.963294,28.173913 102.805942,28.173913 L83.7097301,28.173913 C82.5523781,28.173913 81.9737108,27.5960624 81.9737108,26.4403438 L81.9737108,16.0389282 C81.9737108,14.8832096 82.5523781,14.3053589 83.7097301,14.3053589 L102.805942,14.3053589 C103.963294,14.3053589 104.541962,14.8832096 104.541962,16.0389282 L104.541962,26.4403438 Z M102.794742,17.7876643 C102.794742,16.9779535 102.708044,16.4863507 102.534645,16.3128413 C102.361246,16.1393318 101.869955,16.0525784 101.060759,16.0525784 L85.4549131,16.0525784 C85.0503151,16.0525784 84.7324214,16.0670373 84.5012225,16.0959555 C84.2700237,16.1248738 84.0966271,16.1971683 83.9810277,16.3128413 C83.8654282,16.4285142 83.7931797,16.6020211 83.7642798,16.833367 C83.7353799,17.064713 83.7209302,17.3828089 83.7209302,17.7876643 L83.7209302,24.7280081 C83.7209302,25.1328635 83.7353799,25.4509594 83.7642798,25.6823054 C83.7931797,25.9136513 83.8654282,26.0871582 83.9810277,26.2028311 C84.0966271,26.3185041 84.2700237,26.3907986 84.5012225,26.4197169 C84.7324214,26.4486351 85.0503151,26.463094 85.4549131,26.463094 L101.060759,26.463094 C101.465357,26.463094 101.783251,26.4486351 102.01445,26.4197169 C102.245649,26.3907986 102.419045,26.3185041 102.534645,26.2028311 C102.650244,26.0871582 102.722493,25.9136513 102.751393,25.6823054 C102.780292,25.4509594 102.794742,25.1328635 102.794742,24.7280081 L102.794742,17.7876643 Z M115.789687,33.8635763 C115.789687,33.1980989 116.078912,32.691765 116.657371,32.3445594 L116.657371,7.3892821 L144.423261,7.3892821 C146.158637,7.3892821 147.583071,7.51948225 148.696605,7.77988644 C149.810138,8.04029064 150.692275,8.49599114 151.343041,9.14700163 C151.993807,9.79801212 152.449337,10.6804798 152.709643,11.794431 C152.96995,12.9083823 153.100101,14.3333506 153.100101,16.0693785 L153.100101,35.1655907 L144.423261,35.1655907 L144.423261,17.8053978 C144.423261,16.9952515 144.336493,16.5033842 144.162955,16.3297814 C143.989418,16.1561786 143.497735,16.0693785 142.687892,16.0693785 L125.334211,16.0693785 L125.334211,35.1655907 L120.128107,35.1655907 L120.128107,10.8613207 L144.423261,10.8613207 C145.49341,10.8613207 146.368316,10.9264208 147.048005,11.0566229 C147.727694,11.1868249 148.262761,11.4472252 148.65322,11.8378315 C149.04368,12.2284378 149.303983,12.7637051 149.434136,13.4436494 C149.564289,14.1235937 149.629365,14.998828 149.629365,16.0693785 L149.629365,29.3065256 C150.207824,29.6537312 150.497049,30.1600651 150.497049,30.8255425 C150.497049,31.3174171 150.330744,31.7297176 149.998131,32.0624562 C149.665517,32.3951949 149.253371,32.5615618 148.761681,32.5615618 C148.269991,32.5615618 147.857845,32.3951949 147.525231,32.0624562 C147.192617,31.7297176 147.026313,31.3174171 147.026313,30.8255425 C147.026313,30.1600651 147.315538,29.6537312 147.893997,29.3065256 L147.893997,16.0693785 C147.893997,15.3170998 147.857844,14.7094991 147.785536,14.2465583 C147.713229,13.7836175 147.554155,13.4291838 147.30831,13.1832465 C147.062465,12.9373092 146.708164,12.7781757 146.245397,12.7058412 C145.78263,12.6335067 145.175257,12.59734 144.423261,12.59734 L121.863475,12.59734 L121.863475,33.4295714 L123.598843,33.4295714 L123.598843,14.3333593 L144.423261,14.3333593 C145.580178,14.3333593 146.158629,14.9120266 146.158629,16.0693785 L146.158629,33.4295714 L151.364733,33.4295714 L151.364733,16.0693785 C151.364733,14.6516224 151.270735,13.4942878 151.082736,12.59734 C150.894737,11.7003922 150.540436,10.9915247 150.019823,10.4707163 C149.49921,9.94990795 148.790608,9.59547422 147.893997,9.40740453 C146.997385,9.21933483 145.840485,9.12530139 144.423261,9.12530139 L118.392739,9.12530139 L118.392739,32.3445594 C118.971198,32.691765 119.260423,33.1980989 119.260423,33.8635763 C119.260423,34.3554509 119.094118,34.7677513 118.761504,35.10049 C118.428891,35.4332287 118.016745,35.5995956 117.525055,35.5995956 C117.033365,35.5995956 116.621219,35.4332287 116.288605,35.10049 C115.955991,34.7677513 115.789687,34.3554509 115.789687,33.8635763 Z M167.84543,27.3229306 C167.84543,26.8312276 168.011657,26.4190709 168.344116,26.0864482 C168.676574,25.7538256 169.088528,25.5875167 169.579989,25.5875167 C170.215996,25.5875167 170.70745,25.8767495 171.054363,26.4552237 L187.792852,26.4552237 C188.197584,26.4552237 188.515583,26.440762 188.746859,26.4118383 C188.978135,26.3829146 189.151589,26.3106064 189.267226,26.1949116 C189.382864,26.0792168 189.455137,25.9056771 189.484046,25.6742874 C189.512956,25.4428978 189.52741,25.1247417 189.52741,24.7198098 L189.52741,14.3073265 C189.52741,13.4974627 189.440683,13.005767 189.267226,12.8322247 C189.09377,12.6586825 188.602316,12.5719127 187.792852,12.5719127 L166.978151,12.5719127 L166.978151,29.9260514 L189.52741,29.9260514 C190.279056,29.9260514 190.886145,29.8898973 191.348697,29.8175881 C191.811248,29.7452788 192.165383,29.5862008 192.411114,29.3403492 C192.656844,29.0944977 192.815843,28.7401876 192.888117,28.2774082 C192.960391,27.8146289 192.996527,27.2072401 192.996527,26.4552237 L192.996527,12.5719127 C192.996527,11.8198962 192.960391,11.2125074 192.888117,10.7497281 C192.815843,10.2869487 192.656844,9.93263862 192.411114,9.68678709 C192.165383,9.44093556 191.811248,9.28185755 191.348697,9.20954827 C190.886145,9.137239 190.279056,9.10108491 189.52741,9.10108491 L163.509034,9.10108491 L163.509034,35.1322931 L158.305359,35.1322931 L158.305359,3.89484328 L189.52741,3.89484328 C191.261977,3.89484328 192.685746,4.02499802 193.79876,4.2853114 C194.911774,4.54562478 195.793499,5.00116637 196.443962,5.65194983 C197.094424,6.30273328 197.549742,7.18489318 197.809927,8.29845599 C198.070112,9.41201879 198.200202,10.8364901 198.200202,12.5719127 L198.200202,26.4552237 C198.200202,28.1906462 198.070112,29.6223484 197.809927,30.750373 C197.549742,31.8783977 197.094424,32.7677884 196.443962,33.4185719 C195.793499,34.0693553 194.911774,34.5176661 193.79876,34.7635176 C192.685746,35.0093691 191.261977,35.1322931 189.52741,35.1322931 L167.585246,35.1322931 C167.238333,35.7107672 166.74688,36 166.110872,36 C165.619411,36 165.207458,35.8336912 164.874999,35.5010685 C164.54254,35.1684459 164.376313,34.7562892 164.376313,34.2645861 C164.376313,33.7728831 164.54254,33.3607264 164.874999,33.0281037 C165.207458,32.6954811 165.619411,32.5291722 166.110872,32.5291722 C166.74688,32.5291722 167.238333,32.818405 167.585246,33.3968792 L189.52741,33.3968792 C190.943973,33.3968792 192.100334,33.3028785 192.996527,33.1148744 C193.89272,32.9268703 194.600991,32.5725602 195.121361,32.0519334 C195.641731,31.5313067 195.995867,30.8226864 196.183778,29.9260514 C196.37169,29.0294164 196.465644,27.8724854 196.465644,26.4552237 L196.465644,12.5719127 C196.465644,11.1546509 196.37169,9.99771989 196.183778,9.10108491 C195.995867,8.20444992 195.641731,7.49582967 195.121361,6.97520291 C194.600991,6.45457614 193.89272,6.10026602 192.996527,5.91226191 C192.100334,5.7242578 190.943973,5.63025715 189.52741,5.63025715 L160.039917,5.63025715 L160.039917,33.3968792 L161.774476,33.3968792 L161.774476,7.36567103 L189.52741,7.36567103 C190.59706,7.36567103 191.471558,7.4307484 192.15093,7.56090509 C192.830302,7.69106178 193.365119,7.95137126 193.755396,8.34184134 C194.145674,8.73231141 194.405855,9.267392 194.535948,9.94709917 C194.66604,10.6268063 194.731085,11.5017354 194.731085,12.5719127 L194.731085,26.4552237 C194.731085,27.5543246 194.66604,28.4364845 194.535948,29.1017298 C194.405855,29.7669752 194.145674,30.2948249 193.755396,30.685295 C193.365119,31.0757651 192.830302,31.3360746 192.15093,31.4662312 C191.471558,31.5963879 190.59706,31.6614653 189.52741,31.6614653 L165.243593,31.6614653 L165.243593,10.8364988 L189.52741,10.8364988 C190.683788,10.8364988 191.261969,11.4149643 191.261969,12.5719127 L191.261969,26.4552237 C191.261969,27.612172 190.683788,28.1906376 189.52741,28.1906376 L171.054363,28.1906376 C170.70745,28.7691117 170.215996,29.0583445 169.579989,29.0583445 C169.088528,29.0583445 168.676574,28.8920357 168.344116,28.559413 C168.011657,28.2267903 167.84543,27.8146337 167.84543,27.3229306 Z M240.715875,33.8635763 C240.715875,34.3554509 240.54957,34.7677513 240.216956,35.10049 C239.884342,35.4332287 239.472197,35.5995956 238.980507,35.5995956 C238.488816,35.5995956 238.076671,35.4332287 237.744057,35.10049 C237.411443,34.7677513 237.245138,34.3554509 237.245138,33.8635763 C237.245138,33.2270327 237.534364,32.7351655 238.112822,32.3879599 L238.112822,16.0693785 C238.112822,14.6516224 238.018824,13.4942878 237.830825,12.59734 C237.642826,11.7003922 237.288525,10.9915247 236.767912,10.4707163 C236.247299,9.94990795 235.538698,9.59547422 234.642086,9.40740453 C233.745475,9.21933483 232.588574,9.12530139 231.17135,9.12530139 L206.876196,9.12530139 L206.876196,10.8613207 L231.17135,10.8613207 C232.241499,10.8613207 233.116405,10.9264208 233.796094,11.0566229 C234.475783,11.1868249 235.01085,11.4472252 235.40131,11.8378315 C235.79177,12.2284378 236.052072,12.7637051 236.182225,13.4436494 C236.312379,14.1235937 236.377454,14.998828 236.377454,16.0693785 L236.377454,35.1655907 L212.082301,35.1655907 C210.346924,35.1655907 208.915259,35.0426239 207.787265,34.7966866 C206.65927,34.5507493 205.769902,34.1022822 205.119136,33.4512717 C204.46837,32.8002612 204.020071,31.9105602 203.774226,30.782142 C203.528381,29.6537238 203.40546,28.2215223 203.40546,26.4854943 L203.40546,23.0134557 C203.40546,21.2774277 203.528381,19.8524595 203.774226,18.7385082 C204.020071,17.6245569 204.46837,16.7420893 205.119136,16.0910788 C205.769902,15.4400683 206.65927,14.9843678 207.787265,14.7239636 C208.915259,14.4635594 210.346924,14.3333593 212.082301,14.3333593 L231.17135,14.3333593 C232.328268,14.3333593 232.906718,14.9120266 232.906718,16.0693785 L232.906718,28.2215136 L212.082301,28.2215136 C210.925383,28.2215136 210.346933,27.6428463 210.346933,26.4854943 L210.346933,23.0134557 C210.346933,21.8561037 210.925383,21.2774364 212.082301,21.2774364 L226.83293,21.2774364 L226.83293,19.5414171 L212.082301,19.5414171 C211.330304,19.5414171 210.722931,19.5775838 210.260164,19.6499183 C209.797397,19.7222528 209.443096,19.8813863 209.197251,20.1273236 C208.951406,20.3732609 208.792332,20.7276947 208.720025,21.1906355 C208.647718,21.6535762 208.611564,22.2611769 208.611564,23.0134557 L208.611564,26.4854943 C208.611564,27.2377731 208.647718,27.8453737 208.720025,28.3083145 C208.792332,28.7712553 208.951406,29.1256891 209.197251,29.3716264 C209.443096,29.6175636 209.797397,29.7766972 210.260164,29.8490317 C210.722931,29.9213662 211.330304,29.9575329 212.082301,29.9575329 L230.520587,29.9575329 C230.867662,29.3788569 231.373806,29.0895232 232.039034,29.0895232 C232.530724,29.0895232 232.94287,29.2558901 233.275484,29.5886288 C233.608098,29.9213675 233.774402,30.3336679 233.774402,30.8255425 C233.774402,31.3174171 233.608098,31.7297176 233.275484,32.0624562 C232.94287,32.3951949 232.530724,32.5615618 232.039034,32.5615618 C231.373806,32.5615618 230.867662,32.2722281 230.520587,31.6935522 L212.082301,31.6935522 C210.983229,31.6935522 210.101092,31.6284521 209.435864,31.49825 C208.770637,31.3680479 208.242801,31.1076476 207.852341,30.7170413 C207.461881,30.326435 207.201578,29.7984011 207.071425,29.1329237 C206.941272,28.4674463 206.876196,27.5849787 206.876196,26.4854943 L206.876196,23.0134557 C206.876196,21.9429051 206.941272,21.0676708 207.071425,20.3877265 C207.201578,19.7077822 207.461881,19.172515 207.852341,18.7819087 C208.242801,18.3913024 208.770637,18.1309021 209.435864,18.0007 C210.101092,17.8704979 210.983229,17.8053978 212.082301,17.8053978 L228.568298,17.8053978 L228.568298,23.0134557 L213.817669,23.0134557 C213.412748,23.0134557 213.0946,23.0279224 212.863216,23.0568562 C212.631833,23.08579 212.458298,23.1581234 212.342606,23.2738586 C212.226914,23.3895938 212.154608,23.563194 212.125685,23.7946644 C212.096762,24.0261348 212.082301,24.3444018 212.082301,24.749475 C212.082301,25.1545482 212.096762,25.4728152 212.125685,25.7042856 C212.154608,25.935756 212.226914,26.1093562 212.342606,26.2250914 C212.458298,26.3408266 212.631833,26.41316 212.863216,26.4420938 C213.0946,26.4710276 213.412748,26.4854943 213.817669,26.4854943 L231.17135,26.4854943 L231.17135,17.8053978 C231.17135,16.9952515 231.084582,16.5033842 230.911045,16.3297814 C230.737507,16.1561786 230.245824,16.0693785 229.435982,16.0693785 L212.082301,16.0693785 C210.665076,16.0693785 209.508176,16.163412 208.611564,16.3514817 C207.714953,16.5395514 207.006352,16.8939851 206.485738,17.4147935 C205.965125,17.9356019 205.610825,18.6444693 205.422825,19.5414171 C205.234826,20.4383649 205.140828,21.5956995 205.140828,23.0134557 L205.140828,26.4854943 C205.140828,27.9032505 205.234826,29.0605851 205.422825,29.9575329 C205.610825,30.8544806 205.965125,31.5633481 206.485738,32.0841565 C207.006352,32.6049649 207.714953,32.9593986 208.611564,33.1474683 C209.508176,33.335538 210.665076,33.4295714 212.082301,33.4295714 L234.642086,33.4295714 L234.642086,16.0693785 C234.642086,15.3170998 234.605933,14.7094991 234.533626,14.2465583 C234.461318,13.7836175 234.302245,13.4291838 234.056399,13.1832465 C233.810554,12.9373092 233.456254,12.7781757 232.993486,12.7058412 C232.530719,12.6335067 231.923347,12.59734 231.17135,12.59734 L205.140828,12.59734 L205.140828,7.3892821 L231.17135,7.3892821 C232.906727,7.3892821 234.331161,7.51948225 235.444694,7.77988644 C236.558227,8.04029064 237.440364,8.49599114 238.09113,9.14700163 C238.741897,9.79801212 239.197426,10.6804798 239.457733,11.794431 C239.718039,12.9083823 239.848191,14.3333506 239.848191,16.0693785 L239.848191,32.3879599 C240.426649,32.7351655 240.715875,33.2270327 240.715875,33.8635763 Z M272.799191,17.7945977 C273.868792,17.7945977 274.74325,17.8596303 275.422591,17.9896974 C276.101932,18.1197645 276.636725,18.3798948 277.026984,18.7700961 C277.417244,19.1602973 277.677413,19.6950096 277.8075,20.3742489 C277.937587,21.0534882 278.002629,21.927815 278.002629,22.9972555 L278.002629,26.4656941 C278.002629,27.5640384 277.937587,28.4455911 277.8075,29.1103784 C277.677413,29.7751658 277.417244,30.3026522 277.026984,30.6928535 C276.636725,31.0830548 276.101932,31.3431851 275.422591,31.4732522 C274.74325,31.6033193 273.868792,31.6683519 272.799191,31.6683519 L248.516481,31.6683519 L248.516481,26.4656941 L271.064712,26.4656941 C271.469426,26.4656941 271.78741,26.4512424 272.018675,26.4223386 C272.24994,26.3934348 272.423387,26.3211764 272.539019,26.2055612 C272.654652,26.089946 272.726921,25.9165258 272.755829,25.6852954 C272.784737,25.454065 272.799191,25.136128 272.799191,24.7314748 C272.799191,23.9221684 272.712468,23.4308112 272.539019,23.2573884 C272.36557,23.0839656 271.87414,22.9972555 271.064712,22.9972555 L253.719919,22.9972555 C252.072156,22.9972555 250.69904,22.8816421 249.600531,22.6504117 C248.502022,22.4191813 247.620337,22.0145342 246.95545,21.4364582 C246.290563,20.8583822 245.813586,20.0635397 245.524505,19.0519067 C245.235423,18.0402737 245.076431,16.754074 245.047523,15.1932688 C245.076431,13.6324637 245.235423,12.3534897 245.524505,11.3563087 C245.813586,10.3591276 246.290563,9.56428507 246.95545,8.97175719 C247.620337,8.37922931 248.502022,7.96735635 249.600531,7.73612596 C250.69904,7.50489556 252.072156,7.3892821 253.719919,7.3892821 L279.737108,7.3892821 L279.737108,12.5919399 L253.719919,12.5919399 C253.026124,12.5919399 252.455197,12.6208433 252.007121,12.6786509 C251.559045,12.7364585 251.204925,12.8520719 250.944752,13.0254947 C250.684579,13.1989175 250.503906,13.4590478 250.402728,13.8058934 C250.301549,14.152739 250.250961,14.6151928 250.250961,15.1932688 C250.250961,15.7713448 250.308776,16.2265728 250.424408,16.5589665 C250.540041,16.8913602 250.727941,17.1514905 250.988114,17.3393652 C251.248287,17.5272399 251.59518,17.6500792 252.028802,17.7078868 C252.462424,17.7656944 253.026124,17.7945977 253.719919,17.7945977 L272.799191,17.7945977 Z M253.735086,19.5106168 C252.722947,19.5106168 251.884331,19.4600106 251.219211,19.3587968 C250.554092,19.2575829 250.026342,19.0479288 249.635945,18.7298281 C249.245549,18.4117274 248.97083,17.9707308 248.81178,17.4068251 C248.652729,16.8429193 248.558746,16.0982857 248.529828,15.1729019 C248.558746,14.2764364 248.652729,13.5462617 248.81178,12.9823559 C248.97083,12.4184502 249.245549,11.9774536 249.635945,11.6593529 C250.026342,11.3412522 250.554092,11.1243686 251.219211,11.0086957 C251.884331,10.8930227 252.722947,10.8351871 253.735086,10.8351871 L278.026289,10.8351871 L278.026289,9.10010111 L253.735086,9.10010111 C252.404847,9.10010111 251.298741,9.18685454 250.416734,9.360364 C249.534728,9.53387347 248.833471,9.84473992 248.312942,10.2929727 C247.792414,10.7412055 247.416482,11.3629384 247.185137,12.1581901 C246.953791,12.9534418 246.82366,13.9583357 246.794742,15.1729019 C246.82366,16.4163864 246.953791,17.4285097 247.185137,18.2093023 C247.416482,18.9900949 247.792414,19.6045984 248.312942,20.0528311 C248.833471,20.5010639 249.534728,20.8119304 250.416734,20.9854398 C251.298741,21.1589493 252.404847,21.2457027 253.735086,21.2457027 L272.821031,21.2457027 C273.977761,21.2457027 274.556117,21.8240589 274.556117,22.9807887 L274.556117,26.4509606 C274.556117,27.6076903 273.977761,28.1860465 272.821031,28.1860465 L250.264914,28.1860465 L250.264914,29.9211325 L272.821031,29.9211325 C273.572906,29.9211325 274.18018,29.8849852 274.642872,29.8126896 C275.105563,29.740394 275.459807,29.581346 275.705612,29.335541 C275.951417,29.0897359 276.110465,28.7354927 276.18276,28.2728008 C276.255056,27.8101089 276.291203,27.2028349 276.291203,26.4509606 L276.291203,22.9807887 C276.291203,22.2289143 276.255056,21.6216403 276.18276,21.1589484 C276.110465,20.6962565 275.951417,20.3420134 275.705612,20.0962083 C275.459807,19.8504032 275.105563,19.6913553 274.642872,19.6190597 C274.18018,19.546764 273.572906,19.5106168 272.821031,19.5106168 L253.735086,19.5106168 Z M251.98307,15.1673205 C251.98307,14.6755729 252.149374,14.2633788 252.481988,13.930726 C252.814602,13.5980732 253.226748,13.4317492 253.718438,13.4317492 C254.354743,13.4317492 254.846425,13.7210082 255.193501,14.2995349 L272.807487,14.2995349 C274.542864,14.2995349 275.967298,14.4297014 277.080831,14.6900384 C278.194364,14.9503754 279.076501,15.4059583 279.727267,16.0568008 C280.378034,16.7076433 280.833563,17.5898832 281.09387,18.703547 C281.354176,19.8172108 281.484328,21.2418113 281.484328,22.9773913 L281.484328,26.4485339 C281.484328,28.1841138 281.354176,29.6159458 281.09387,30.7440728 C280.833563,31.8721998 280.378034,32.7616712 279.727267,33.4125137 C279.076501,34.0633561 278.194364,34.5117076 277.080831,34.7575814 C275.967298,35.0034552 274.542864,35.1263903 272.807487,35.1263903 L245.041597,35.1263903 L245.041597,28.7915551 C244.463138,28.4444391 244.173913,27.9526988 244.173913,27.3163195 C244.173913,26.8245719 244.340217,26.4123778 244.672831,26.079725 C245.005445,25.7470721 245.417591,25.5807482 245.909281,25.5807482 C246.400971,25.5807482 246.813117,25.7470721 247.145731,26.079725 C247.478345,26.4123778 247.644649,26.8245719 247.644649,27.3163195 C247.644649,27.9526988 247.355424,28.4444391 246.776965,28.7915551 L246.776965,33.390819 L272.807487,33.390819 C274.224711,33.390819 275.381612,33.2968098 276.278223,33.1087887 C277.174835,32.9207675 277.883436,32.5664253 278.404049,32.0457513 C278.924662,31.5250773 279.278963,30.8163928 279.466962,29.9196764 C279.654961,29.0229601 279.748959,27.8659242 279.748959,26.4485339 L279.748959,22.9773913 C279.748959,21.560001 279.654961,20.402965 279.466962,19.5062487 C279.278963,18.6095324 278.924662,17.9008479 278.404049,17.3801739 C277.883436,16.8594999 277.174835,16.5051577 276.278223,16.3171365 C275.381612,16.1291153 274.224711,16.0351062 272.807487,16.0351062 L255.193501,16.0351062 C254.846425,16.6136328 254.354743,16.9028918 253.718438,16.9028918 C253.226748,16.9028918 252.814602,16.7365679 252.481988,16.4039151 C252.149374,16.0712622 251.98307,15.6590682 251.98307,15.1673205 Z M292.751211,1.73463656 C292.751211,1.24315374 292.917549,0.83118168 293.250231,0.49870801 C293.582914,0.166234341 293.995144,0 294.486935,0 C294.978726,0 295.390957,0.166234341 295.723639,0.49870801 C296.056321,0.83118168 296.22266,1.24315374 296.22266,1.73463656 C296.22266,2.3995839 295.933375,2.9055145 295.354798,3.25244355 L295.354798,7.37220537 L314.447768,7.37220537 C316.183501,7.37220537 317.608227,7.50230181 318.721989,7.7624986 C319.835751,8.02269538 320.718069,8.47803292 321.368969,9.12852488 C322.019869,9.77901685 322.475492,10.6607816 322.735852,11.7738456 C322.996212,12.8869097 323.12639,14.3107429 323.12639,16.0453882 L323.12639,35.1263903 L314.447768,35.1263903 L314.447768,17.7800247 C314.447768,16.9705236 314.360982,16.4790482 314.187409,16.3055836 C314.013836,16.1321191 313.522052,16.0453882 312.712043,16.0453882 L295.354798,16.0453882 L295.354798,35.1263903 L290.147624,35.1263903 L290.147624,10.8414785 L314.447768,10.8414785 C315.518136,10.8414785 316.393222,10.9065267 317.073051,11.0366251 C317.75288,11.1667235 318.288056,11.4269164 318.678596,11.8172115 C319.069136,12.2075067 319.329492,12.7423476 319.459672,13.4217504 C319.589852,14.1011531 319.654941,14.9756903 319.654941,16.0453882 L319.654941,29.2719919 C320.233519,29.618921 320.522803,30.1248516 320.522803,30.7897989 C320.522803,31.2812817 320.356465,31.6932538 320.023783,32.0257274 C319.6911,32.3582011 319.27887,32.5244355 318.787079,32.5244355 C318.295288,32.5244355 317.883057,32.3582011 317.550375,32.0257274 C317.217693,31.6932538 317.051354,31.2812817 317.051354,30.7897989 C317.051354,30.1248516 317.340639,29.618921 317.919217,29.2719919 L317.919217,16.0453882 C317.919217,15.2937086 317.883056,14.6865918 317.810734,14.2240198 C317.738412,13.7614477 317.579305,13.4072963 317.33341,13.1615549 C317.087514,12.9158135 316.733141,12.7568067 316.270278,12.6845298 C315.807416,12.6122529 315.199919,12.576115 314.447768,12.576115 L291.883348,12.576115 L291.883348,33.3917537 L293.619073,33.3917537 L293.619073,14.3107516 L314.447768,14.3107516 C315.604923,14.3107516 316.183492,14.888958 316.183492,16.0453882 L316.183492,33.3917537 L321.390666,33.3917537 L321.390666,16.0453882 C321.390666,14.6287612 321.296648,13.4723484 321.108611,12.576115 C320.920573,11.6798817 320.566199,10.9715788 320.045479,10.4511853 C319.524759,9.93079169 318.816012,9.57664027 317.919217,9.38872037 C317.022421,9.20080047 315.865283,9.10684193 314.447768,9.10684193 L293.619073,9.10684193 L293.619073,3.25244355 C293.040495,2.9055145 292.751211,2.3995839 292.751211,1.73463656 Z M289.292214,8.24266936 C289.292214,7.60663278 289.581898,7.11515734 290.161274,6.76822829 L290.161274,2.17144141 L288.423155,2.17144141 L288.423155,32.3107516 C289.002531,32.6576806 289.292214,33.1636113 289.292214,33.8285586 C289.292214,34.3200414 289.125646,34.7320135 288.792505,35.0644871 C288.459364,35.3969608 288.046565,35.5631951 287.554095,35.5631951 C287.061625,35.5631951 286.648826,35.3969608 286.315685,35.0644871 C285.982544,34.7320135 285.815976,34.3200414 285.815976,33.8285586 C285.815976,33.1636113 286.105659,32.6576806 286.685035,32.3107516 L286.685035,0.436804853 L291.899393,0.436804853 L291.899393,6.76822829 C292.478769,7.11515734 292.768453,7.60663278 292.768453,8.24266936 C292.768453,8.73415218 292.601885,9.14612424 292.268744,9.47859791 C291.935602,9.81107158 291.522803,9.97730592 291.030334,9.97730592 C290.537864,9.97730592 290.125065,9.81107158 289.791924,9.47859791 C289.458782,9.14612424 289.292214,8.73415218 289.292214,8.24266936 Z" id="TronDash" fill="#FF0014"></path>
    </g>
</svg>