<?xml version="1.0" encoding="UTF-8"?>
<svg width="37px" height="31px" viewBox="0 0 37 31" version="1.1" xmlns="http://www.w3.org/2000/svg" xmlns:xlink="http://www.w3.org/1999/xlink">
    <!-- Generator: Sketch 51.2 (57519) - http://www.bohemiancoding.com/sketch -->
    <title>Artboard</title>
    <desc>Created with Sketch.</desc>
    <defs></defs>
    <g id="Artboard" stroke="none" stroke-width="1" fill="none" fill-rule="evenodd" stroke-linecap="round" stroke-linejoin="round">
        <g id="iconfinder_farming-11_2574152" transform="translate(3.000000, 3.000000)" stroke="#ffffff">
            <path d="M31.5,13.5005181 C20.0192076,13.4863875 9.03601387,18.1860636 1.119,26.50049" id="Shape"></path>
            <path d="M31.5,15.5005125 C21.2436226,15.4864988 11.3764583,19.4261412 3.95018,26.50031" id="Shape"></path>
            <path d="M31.5,17.5005075 C22.5049275,17.4870841 13.799098,20.6776489 6.94291,26.50038" id="Shape"></path>
            <path d="M31.5,19.5005048 C23.8223352,19.4883554 16.3436922,21.942083 10.16558,26.50033" id="Shape"></path>
            <path d="M31.5,21.5005069 C25.2320577,21.4905519 19.0844922,23.2215165 13.74262,26.50048" id="Shape"></path>
            <path d="M31.5,23.50055 C26.8193756,23.4939467 22.1947214,24.5181489 17.95456,26.5004" id="Shape"></path>
            <path d="M31.5,25.5005412 C28.8982999,25.4985627 26.3073617,25.8345232 23.79221,26.5" id="Shape"></path>
            <path d="M0.5,13.50055 C5.80829465,13.4940034 11.0694601,14.4964802 16.0034,16.45461" id="Shape"></path>
            <path d="M0.5,15.50055 C4.87364997,15.4959703 9.21837278,16.2095939 13.36077,17.61294" id="Shape"></path>
            <path d="M0.5,17.5005366 C3.99664218,17.4976193 7.47698215,17.976952 10.84265,18.925" id="Shape"></path>
            <path d="M0.5,19.5005433 C3.17596298,19.4989143 5.84382114,19.7946491 8.45446,20.38231" id="Shape"></path>
            <path d="M0.5,21.5005474 C2.40867465,21.4998075 4.31406705,21.6587181 6.19625,21.97562" id="Shape"></path>
            <path d="M0.5,23.5005494 C1.6915586,23.5003247 2.88221969,23.5659313 4.06654,23.69707" id="Shape"></path>
            <path d="M0.5,25.50055 C1.025,25.50055 1.54674,25.5139267 2.06522,25.54068" id="Shape"></path>
            <polyline id="Shape" points="16.5 16.258 16.5 10.501 17.5 10.501 19.5 8.501 11.5 8.501 13.5 10.501 14.5 10.501 14.5 15.891"></polyline>
            <path d="M23.5,7.50055 C23.5,8.05283475 23.0522847,8.50055 22.5,8.50055 C21.9477153,8.50055 21.5,8.05283475 21.5,7.50055 C21.7173634,6.7819425 22.0555321,6.10560525 22.5,5.50055 C22.9444679,6.10560525 23.2826366,6.7819425 23.5,7.50055 Z" id="Shape"></path>
            <path d="M29.5,10.50055 C29.5,11.0528347 29.0522847,11.50055 28.5,11.50055 C27.9477153,11.50055 27.5,11.0528347 27.5,10.50055 C27.7173634,9.7819425 28.0555321,9.10560525 28.5,8.50055 C28.9444679,9.10560525 29.2826366,9.7819425 29.5,10.50055 Z" id="Shape"></path>
            <path d="M6.5,9.50055 C6.5,10.0528347 6.05228475,10.50055 5.5,10.50055 C4.94771525,10.50055 4.5,10.0528347 4.5,9.50055 C4.71736344,8.7819425 5.05553207,8.10560525 5.5,7.50055 C5.94446793,8.10560525 6.28263656,8.7819425 6.5,9.50055 Z" id="Shape"></path>
            <path d="M10.5,5.50055 C10.5,6.05283475 10.0522847,6.50055 9.5,6.50055 C8.94771525,6.50055 8.5,6.05283475 8.5,5.50055 C8.71736344,4.7819425 9.05553207,4.10560525 9.5,3.50055 C9.94446793,4.10560525 10.2826366,4.7819425 10.5,5.50055 Z" id="Shape"></path>
            <path d="M23.5,0.50055 L24.5,0.50055" id="Shape"></path>
            <path d="M20.43853,1.10951 L21.36241,0.72683" id="Shape"></path>
            <path d="M17.84315,2.84369 L18.55025,2.13659" id="Shape"></path>
            <path d="M16.10896,5.43908 L16.49165,4.5152" id="Shape"></path>
            <path d="M15.5,8.50055 L15.5,7.50055" id="Shape"></path>
            <path d="M31.5,8.50055 L31.5,9.50055" id="Shape"></path>
            <path d="M30.89104,5.43908 L31.27372,6.36296" id="Shape"></path>
            <path d="M29.15685,2.84369 L29.86396,3.5508" id="Shape"></path>
            <path d="M26.56147,1.10951 L27.48535,1.4922" id="Shape"></path>
            <path d="M7.5,0.50055 L6.5,0.50055" id="Shape"></path>
            <path d="M10.56147,1.10951 L9.63759,0.72683" id="Shape"></path>
            <path d="M13.15685,2.84369 L12.44975,2.13659" id="Shape"></path>
            <path d="M14.89104,5.43908 L14.50835,4.5152" id="Shape"></path>
            <path d="M1.84315,2.84369 L1.13604,3.5508" id="Shape"></path>
            <path d="M4.43853,1.10951 L3.51465,1.4922" id="Shape"></path>
        </g>
    </g>
</svg>